<svg width="96" height="16" viewBox="0 0 96 16" fill="none" xmlns="http://www.w3.org/2000/svg">
<g opacity="0.5" clip-path="url(#clip0_305_2121)">
<path d="M76.7168 3.52344V12.3327H78.617V8.73405H82.6695V12.3327H84.5697V3.52344H82.6695V7.13514H78.617V3.52344H76.7168Z" fill="white"/>
<path d="M88.8509 8.7798H90.0338L92.9513 12.3334H95.4078L91.5187 7.77703L94.9169 3.52344H92.732L89.9002 7.29924H88.8509V3.52344H86.9492V12.3334H88.8509V8.7798Z" fill="white"/>
<path d="M73.4492 12.3327H75.4504L71.7392 3.52344H69.8005L66 12.3327H67.9257L68.6895 10.5588H72.7297L73.4492 12.3327ZM69.2581 9.08912L70.7307 5.55221L72.1146 9.08912H69.2581Z" fill="white"/>
<path d="M62.0249 6.95724H59.7115V4.99019H64.6832L64.6876 3.52344H57.8105V12.3327H61.7795C64.0058 12.3327 65.283 11.3241 65.283 9.56545C65.283 7.88377 64.1256 6.95724 62.0249 6.95724ZM61.6938 10.8659H59.7115V8.424H61.6938C62.9006 8.424 63.4626 8.8328 63.4626 9.64533C63.4626 10.4753 62.8672 10.8659 61.6938 10.8659Z" fill="white"/>
<path d="M42.686 4.99019L44.6763 3.52344H38.0156V12.3334H44.6763V10.8659H39.9166V8.61061H43.9763V7.14386H39.9166V4.99019H42.686Z" fill="white"/>
<path d="M32.9859 6.95724H30.6725V4.99019H34.3648L36.355 3.52344H28.7715V12.3334H32.7404C34.9667 12.3334 36.2432 11.3241 36.2432 9.56545C36.2432 7.88377 35.0865 6.95724 32.9859 6.95724ZM32.6548 10.8659H30.6725V8.424H32.6548C33.8608 8.424 34.4229 8.8328 34.4229 9.64533C34.4229 10.4753 33.8282 10.8659 32.6548 10.8659Z" fill="white"/>
<path d="M50.0715 3.52344H46.4453V12.3327H48.3456V9.83775H50.0715C52.3857 9.83775 53.8234 8.62078 53.8234 6.67624C53.8234 4.7317 52.3857 3.52344 50.0715 3.52344ZM50.0294 8.37099H48.3456V4.99019H50.0294C51.2478 4.99019 51.9173 5.59069 51.9173 6.68059C51.9173 7.7705 51.2471 8.37099 50.0294 8.37099Z" fill="white"/>
<path d="M25.5087 10.4254C25.005 10.6983 24.4406 10.8397 23.8677 10.8364C22.1541 10.8364 20.9102 9.6129 20.9102 7.92758C20.9102 6.24226 22.1541 5.02239 23.8677 5.02239C24.4871 5.01338 25.0931 5.20323 25.5966 5.56407L26.9602 4.55912L26.8702 4.47998C26.0715 3.78073 25.0106 3.41113 23.7944 3.41113C22.475 3.41113 21.2776 3.85552 20.423 4.66368C19.5684 5.47185 19.0898 6.61912 19.0898 7.88256C19.0898 9.14601 19.5618 10.3121 20.4186 11.1501C21.2755 11.988 22.4721 12.4527 23.782 12.4527C25.1522 12.4527 26.3488 11.975 27.1606 11.1058L25.9299 10.1989L25.5087 10.4254Z" fill="white"/>
<path d="M14.5678 7.8851C14.5679 7.44901 14.529 7.01378 14.4516 6.58462L12.8883 7.73624C12.8883 7.78562 12.8883 7.83572 12.8883 7.88146C12.89 9.13096 12.4731 10.345 11.7042 11.3299C10.9352 12.3148 9.85853 13.0137 8.64593 13.3151C7.43334 13.6165 6.15472 13.5031 5.01414 12.9929C3.87356 12.4827 2.93675 11.6051 2.35322 10.5002C1.76969 9.39535 1.57308 8.12686 1.79476 6.89719C2.01644 5.66751 2.64363 4.54753 3.57624 3.71598C4.50885 2.88443 5.69313 2.38924 6.94008 2.30944C8.18702 2.22964 9.42476 2.56982 10.4558 3.27571L11.8681 2.23445C10.5865 1.20029 8.99152 0.632445 7.34477 0.624116C5.69803 0.615788 4.09736 1.16746 2.80543 2.18862C1.5135 3.20977 0.607044 4.63975 0.234812 6.2439C-0.13742 7.84804 0.0466804 9.53107 0.756903 11.0168C1.46713 12.5026 2.66128 13.7028 4.14342 14.4205C5.62556 15.1382 7.30764 15.3308 8.91365 14.9666C10.5197 14.6025 11.9542 13.7033 12.9818 12.4165C14.0095 11.1297 14.5692 9.53186 14.5692 7.8851H14.5678Z" fill="white"/>
<path d="M13.0531 3.44531C13.3983 3.89123 13.6907 4.37563 13.9244 4.88883L7.3073 9.76543L4.54297 8.03219V5.94751L7.3073 7.68002L13.0531 3.44531Z" fill="white"/>
</g>
<defs>
<clipPath id="clip0_305_2121">
<rect width="95.4118" height="14.8128" fill="white" transform="translate(0 0.59375)"/>
</clipPath>
</defs>
</svg>
