<svg width="52" height="29" viewBox="0 0 52 29" fill="none" xmlns="http://www.w3.org/2000/svg">
<path d="M2.50215 13.9584L1.82787 13.63L1.46568 14.3737L2.24113 14.6616L2.50215 13.9584ZM4.43348 9.99302L3.90823 9.45765L3.81586 9.54828L3.7592 9.66461L4.43348 9.99302ZM3.64664 14.3833L4.0866 13.7759L4.00366 13.7158L3.90765 13.6802L3.64664 14.3833ZM5.11302 15.4455L5.8246 15.6824L5.99836 15.1607L5.55298 14.8381L5.11302 15.4455ZM4.04006 18.6674L4.55369 19.2139L4.69177 19.0841L4.75164 18.9044L4.04006 18.6674ZM1.21459 21.3228L0.700963 20.7763L0.551052 20.9172L0.494005 21.1148L1.21459 21.3228ZM1 22.0663L0.279412 21.8583L0.155954 22.2861L0.472358 22.5993L1 22.0663ZM2.28755 23.3409L2.94572 22.9813L2.89314 22.8851L2.8152 22.8079L2.28755 23.3409ZM4.6123 27.5957L3.95414 27.9554L4.16744 28.3457H4.6123V27.5957ZM10.7282 27.5957V28.3457H11.6472L11.463 27.4454L10.7282 27.5957ZM10.2632 25.3236L10.998 25.1733L10.9155 24.7703L10.5313 24.6232L10.2632 25.3236ZM7.58083 24.2969L6.90202 23.9779L6.55868 24.7087L7.31272 24.9973L7.58083 24.2969ZM8.29614 22.7744L7.80959 22.2037L7.68625 22.3088L7.61733 22.4555L8.29614 22.7744ZM9.58369 21.6769L10.2477 21.3281L9.81128 20.4973L9.09714 21.1061L9.58369 21.6769ZM10.0486 22.562L9.38467 22.9108L9.42305 22.9838L9.47641 23.0468L10.0486 22.562ZM11.9084 24.7571L12.6527 24.6647L12.6252 24.4429L12.4807 24.2723L11.9084 24.7571ZM12.2303 27.3479L11.4861 27.4404L11.557 28.0118L12.1274 28.0908L12.2303 27.3479ZM14.0186 27.5957L13.9156 28.3386L13.9669 28.3457H14.0186V27.5957ZM39.4836 27.5957V28.3457H40.3997L40.2188 27.4476L39.4836 27.5957ZM39.0544 25.4653L39.7896 25.3171L39.6969 24.8568L39.2422 24.7392L39.0544 25.4653ZM35.907 24.6509L35.2557 25.0228L35.4127 25.2977L35.7191 25.377L35.907 24.6509ZM34.5122 22.2079L33.7874 22.015L33.7082 22.3125L33.8608 22.5798L34.5122 22.2079ZM35.907 16.9679L35.4737 16.3558L35.2521 16.5126L35.1823 16.775L35.907 16.9679ZM42.0587 12.613L42.492 13.2252L42.5715 13.1689L42.634 13.0942L42.0587 12.613ZM44.8126 9.32031L44.3013 8.77158L44.2672 8.80337L44.2373 8.83914L44.8126 9.32031ZM47.8526 6.48787L47.5372 5.80744L47.4288 5.85769L47.3414 5.93913L47.8526 6.48787ZM50.6781 5.17786L50.9936 5.85828L51.3758 5.68109L51.4233 5.26255L50.6781 5.17786ZM51 2.34541L51.7452 2.4301L51.8205 1.76745L51.1712 1.61521L51 2.34541ZM48.2818 1.70811L48.453 0.977913L48.3686 0.958112H48.2818V1.70811ZM46.3505 1.70811L45.836 2.25382L46.0527 2.45811H46.3505V1.70811ZM45.5994 1L46.1139 0.454294L45.7944 0.153083L45.3754 0.284241L45.5994 1ZM40.7353 2.52244V3.27244H40.85L40.9594 3.2382L40.7353 2.52244ZM39.8412 2.52244V1.77244H39.3905L39.179 2.17036L39.8412 2.52244ZM39.4836 3.19515L39.726 3.90487L40.0066 3.80901L40.1458 3.54723L39.4836 3.19515ZM35.4421 4.57596L35.293 5.31099L35.4922 5.35141L35.6846 5.28568L35.4421 4.57596ZM31.0787 3.69082L31.2278 2.9558L31.0485 2.91942L30.8725 2.96971L31.0787 3.69082ZM24.3906 5.60273L24.3336 6.35056L24.4676 6.36076L24.5967 6.32384L24.3906 5.60273ZM20.671 5.31948L20.5434 6.05855L20.5785 6.06461L20.614 6.06732L20.671 5.31948ZM14.5193 4.25731L14.6469 3.51825L14.474 3.48839L14.3058 3.53835L14.5193 4.25731ZM8.4392 6.063L8.22568 5.34403L8.047 5.3971L7.91395 5.52763L8.4392 6.063ZM21.1365 24.6153V25.3653H21.859L21.886 24.6433L21.1365 24.6153ZM21.2796 20.7915L22.0291 20.8195L22.0311 20.7646L22.0252 20.71L21.2796 20.7915ZM19.5986 24.6153L19.168 25.2293L19.3619 25.3653H19.5986V24.6153ZM17.8819 23.4115L17.1645 23.6302L17.2398 23.8773L17.4513 24.0255L17.8819 23.4115ZM17.3096 21.535H16.5596V21.6468L16.5922 21.7537L17.3096 21.535ZM17.3096 19.4814L17.3884 18.7356L16.5596 18.6481V19.4814H17.3096ZM19.992 19.7647L19.9133 20.5105L20.0443 20.5244L20.1722 20.4927L19.992 19.7647ZM21.1365 19.4814L21.8821 19.4L21.789 18.5473L20.9564 18.7534L21.1365 19.4814ZM29.5782 24.4749L30.3133 24.3264L30.2714 24.1188L30.127 23.9638L29.5782 24.4749ZM29.6497 24.829L29.5144 25.5667L30.6042 25.7665L30.3848 24.6805L29.6497 24.829ZM27.468 22.209L28.0169 21.6979L27.275 20.9012L26.7949 21.8782L27.468 22.209ZM26.8242 23.519L26.1511 23.1882L25.9227 23.653L26.2765 24.0313L26.8242 23.519ZM27.7184 24.4749L27.1706 24.9873L27.3397 25.168L27.5831 25.2126L27.7184 24.4749ZM3.17642 14.2868L5.10776 10.3214L3.7592 9.66461L1.82787 13.63L3.17642 14.2868ZM3.90765 13.6802L2.76316 13.2553L2.24113 14.6616L3.38562 15.0864L3.90765 13.6802ZM5.55298 14.8381L4.0866 13.7759L3.20667 14.9907L4.67305 16.0529L5.55298 14.8381ZM4.75164 18.9044L5.8246 15.6824L4.40144 15.2085L3.32848 18.4304L4.75164 18.9044ZM1.72822 21.8693L4.55369 19.2139L3.52643 18.1209L0.700963 20.7763L1.72822 21.8693ZM1.72059 22.2743L1.93518 21.5308L0.494005 21.1148L0.279412 21.8583L1.72059 22.2743ZM2.8152 22.8079L1.52764 21.5333L0.472358 22.5993L1.75991 23.8739L2.8152 22.8079ZM5.27047 27.2361L2.94572 22.9813L1.62939 23.7005L3.95414 27.9554L5.27047 27.2361ZM10.7282 26.8457H4.6123V28.3457H10.7282V26.8457ZM9.52846 25.474L9.99341 27.7461L11.463 27.4454L10.998 25.1733L9.52846 25.474ZM7.31272 24.9973L9.99512 26.0241L10.5313 24.6232L7.84894 23.5964L7.31272 24.9973ZM7.61733 22.4555L6.90202 23.9779L8.25964 24.6158L8.97495 23.0934L7.61733 22.4555ZM9.09714 21.1061L7.80959 22.2037L8.78269 23.3452L10.0702 22.2476L9.09714 21.1061ZM10.7126 22.2132L10.2477 21.3281L8.91972 22.0256L9.38467 22.9108L10.7126 22.2132ZM12.4807 24.2723L10.6209 22.0772L9.47641 23.0468L11.3362 25.242L12.4807 24.2723ZM12.9746 27.2554L12.6527 24.6647L11.1642 24.8496L11.4861 27.4404L12.9746 27.2554ZM14.1216 26.8528L12.3333 26.605L12.1274 28.0908L13.9156 28.3386L14.1216 26.8528ZM21.3863 26.8457H14.0186V28.3457H21.3863V26.8457ZM39.4836 26.8457H21.3863V28.3457H39.4836V26.8457ZM38.3191 25.6134L38.7483 27.7439L40.2188 27.4476L39.7896 25.3171L38.3191 25.6134ZM35.7191 25.377L38.8665 26.1913L39.2422 24.7392L36.0949 23.9248L35.7191 25.377ZM33.8608 22.5798L35.2557 25.0228L36.5583 24.2791L35.1635 21.8361L33.8608 22.5798ZM35.1823 16.775L33.7874 22.015L35.2369 22.4009L36.6318 17.1608L35.1823 16.775ZM41.6253 12.0009L35.4737 16.3558L36.3404 17.5801L42.492 13.2252L41.6253 12.0009ZM44.2373 8.83914L41.4834 12.1319L42.634 13.0942L45.3879 9.80148L44.2373 8.83914ZM47.3414 5.93913L44.3013 8.77158L45.3239 9.86905L48.3639 7.0366L47.3414 5.93913ZM50.3626 4.49744L47.5372 5.80744L48.1681 7.16829L50.9936 5.85828L50.3626 4.49744ZM50.2548 2.26072L49.9329 5.09317L51.4233 5.26255L51.7452 2.4301L50.2548 2.26072ZM48.1106 2.43831L50.8288 3.07561L51.1712 1.61521L48.453 0.977913L48.1106 2.43831ZM46.3505 2.45811H48.2818V0.958112H46.3505V2.45811ZM45.0849 1.54571L45.836 2.25382L46.865 1.16241L46.1139 0.454294L45.0849 1.54571ZM40.9594 3.2382L45.8235 1.71576L45.3754 0.284241L40.5113 1.80668L40.9594 3.2382ZM39.8412 3.27244H40.7353V1.77244H39.8412V3.27244ZM40.1458 3.54723L40.5034 2.87452L39.179 2.17036L38.8213 2.84307L40.1458 3.54723ZM35.6846 5.28568L39.726 3.90487L39.2411 2.48543L35.1996 3.86624L35.6846 5.28568ZM30.9296 4.42585L35.293 5.31099L35.5912 3.84093L31.2278 2.9558L30.9296 4.42585ZM24.5967 6.32384L31.2848 4.41194L30.8725 2.96971L24.1844 4.88161L24.5967 6.32384ZM20.614 6.06732L24.3336 6.35056L24.4475 4.85489L20.7279 4.57165L20.614 6.06732ZM14.3917 4.99638L20.5434 6.05855L20.7986 4.58042L14.6469 3.51825L14.3917 4.99638ZM8.65272 6.78196L14.7328 4.97628L14.3058 3.53835L8.22568 5.34403L8.65272 6.78196ZM4.95872 10.5284L8.96445 6.59836L7.91395 5.52763L3.90823 9.45765L4.95872 10.5284ZM21.886 24.6433L22.0291 20.8195L20.5301 20.7634L20.3871 24.5872L21.886 24.6433ZM19.5986 25.3653H21.1365V23.8653H19.5986V25.3653ZM17.4513 24.0255L19.168 25.2293L20.0292 24.0012L18.3125 22.7974L17.4513 24.0255ZM16.5922 21.7537L17.1645 23.6302L18.5993 23.1927L18.027 21.3162L16.5922 21.7537ZM16.5596 19.4814V21.535H18.0596V19.4814H16.5596ZM20.0708 19.0188L17.3884 18.7356L17.2309 20.2273L19.9133 20.5105L20.0708 19.0188ZM20.9564 18.7534L19.8119 19.0367L20.1722 20.4927L21.3167 20.2095L20.9564 18.7534ZM22.0252 20.71L21.8821 19.4L20.391 19.5629L20.534 20.8729L22.0252 20.71ZM28.843 24.6235L28.9145 24.9775L30.3848 24.6805L30.3133 24.3264L28.843 24.6235ZM26.9191 22.7201L29.0293 24.9861L30.127 23.9638L28.0169 21.6979L26.9191 22.7201ZM27.4973 23.8498L28.1411 22.5398L26.7949 21.8782L26.1511 23.1882L27.4973 23.8498ZM28.2661 23.9626L27.372 23.0067L26.2765 24.0313L27.1706 24.9873L28.2661 23.9626ZM29.7849 24.0913L27.8536 23.7372L27.5831 25.2126L29.5144 25.5667L29.7849 24.0913Z" fill="white"/>
</svg>
